<?xml version="1.0" standalone="no"?>
<!DOCTYPE svg PUBLIC "-//W3C//DTD SVG 20010904//EN"
 "http://www.w3.org/TR/2001/REC-SVG-20010904/DTD/svg10.dtd">
<svg version="1.0" xmlns="http://www.w3.org/2000/svg"
 width="152.000000pt" height="152.000000pt" viewBox="0 0 152.000000 152.000000"
 preserveAspectRatio="xMidYMid meet">
<metadata>
Created by potrace 1.14, written by Peter Selinger 2001-2017
</metadata>
<g transform="translate(0.000000,152.000000) scale(0.100000,-0.100000)"
fill="#000000" stroke="none">
<path d="M348 1133 l-28 -4 0 -332 0 -332 63 -2 c34 -1 107 -11 162 -22 l100
-19 -216 -1 c-189 -1 -218 1 -223 15 -3 9 -6 147 -6 309 0 311 0 309 49 317
46 6 36 28 -13 28 -35 0 -48 -5 -56 -19 -14 -27 -14 -635 0 -662 10 -18 24
-19 293 -19 l282 0 70 35 c101 50 253 68 330 39 13 -5 15 33 15 295 l0 301 55
0 c48 0 55 -3 60 -22 3 -13 4 -156 3 -318 l-3 -295 -212 -3 c-180 -2 -213 -5
-213 -17 0 -13 32 -15 220 -15 207 0 220 1 230 19 14 27 14 635 0 662 -9 15
-22 19 -69 19 -49 0 -59 3 -64 19 -6 25 -73 36 -161 26 -82 -8 -145 -27 -213
-64 l-54 -30 -70 35 c-104 53 -224 73 -331 57z m407 -193 c-5 -8 -11 -8 -17
-2 -6 6 -7 16 -3 22 5 8 11 8 17 2 6 -6 7 -16 3 -22z m15 -285 c0 -182 -3
-224 -14 -228 -8 -3 -17 -3 -20 0 -8 9 -8 458 1 466 3 4 12 2 20 -4 10 -9 13
-60 13 -234z"/>
</g>
</svg>
